<svg xmlns="http://www.w3.org/2000/svg" xmlns:xlink="http://www.w3.org/1999/xlink" width="800" height="700" viewBox="0 0 800 700">
  <defs>
    <clipPath id="clip-path">
      <path id="Path_70047" data-name="Path 70047" d="M311.873,118.264a4.483,4.483,0,0,1,3.483,4.09c.117,3.361-3.545,3.131-3.545,3.131S308.653,121.418,311.873,118.264Z" transform="translate(-310.426 -118.264)" fill="#fff"/>
    </clipPath>
    <clipPath id="clip-React_NativeApp_Development">
      <rect width="800" height="700"/>
    </clipPath>
  </defs>
  <g id="React_NativeApp_Development" data-name="React NativeApp Development" clip-path="url(#clip-React_NativeApp_Development)">
    <g id="Group_14369" data-name="Group 14369" transform="translate(-1011.507 -311.147)">
      <g id="Group_14214" data-name="Group 14214" transform="translate(1078.964 460.394)" opacity="0.34">
        <path id="Path_70019" data-name="Path 70019" d="M391.586,160.559s4.763-13.744,19.048-14.1,9.158,8.458,24.177,7.047,9.524-18.325,32.968-21.848,33.334,28.9,33.334,28.9Z" transform="translate(171.317 -80.293)" fill="#fcd5c2"/>
        <path id="Path_70063" data-name="Path 70063" d="M391.586,160.559s4.763-13.744,19.048-14.1,9.158,8.458,24.177,7.047,9.524-18.325,32.968-21.848,33.334,28.9,33.334,28.9Z" transform="translate(-185.909 329.548)" fill="#fcd5c2"/>
        <path id="Path_70021" data-name="Path 70021" d="M25.685,117.641s3.177-9.172,12.712-9.407,6.112,5.644,16.135,4.7,6.357-12.229,22-14.581,22.248,19.285,22.248,19.285Z" transform="translate(-25.685 -98.177)" fill="#fcd5c2"/>
      </g>
      <g id="Group_14268" data-name="Group 14268" transform="translate(1057.618 670.465)" opacity="0.34">
        <path id="Path_70019-2" data-name="Path 70019" d="M391.586,160.559s4.763-13.744,19.048-14.1,9.158,8.458,24.177,7.047,9.524-18.325,32.968-21.848,33.334,28.9,33.334,28.9Z" transform="translate(171.317 25.555)" fill="#fcd5c2"/>
        <path id="Path_70020" data-name="Path 70020" d="M230.576,51.154S234.131,40.89,244.8,40.626s6.84,6.315,18.055,5.263,7.112-13.686,24.621-16.316,24.893,21.581,24.893,21.581Z" transform="translate(84.629 -29.373)" fill="#fcd5c2"/>
        <path id="Path_70021-2" data-name="Path 70021" d="M25.685,117.641s3.177-9.172,12.712-9.407,6.112,5.644,16.135,4.7,6.357-12.229,22-14.581,22.248,19.285,22.248,19.285Z" transform="translate(-25.685 7.671)" fill="#fcd5c2"/>
      </g>
      <g id="Group_14227" data-name="Group 14227" transform="translate(1147.951 805.383)" opacity="0.17">
        <rect id="Rectangle_1977" data-name="Rectangle 1977" width="76.392" height="68.238" rx="6.312" transform="translate(0 0)" fill="#dc761c"/>
        <path id="Path_70024" data-name="Path 70024" d="M306.717,368.382l-2.51-.44a12.993,12.993,0,0,0-1.294-3.125l1.462-2.086a1.927,1.927,0,0,0-.215-2.471l-1.5-1.5a1.926,1.926,0,0,0-2.47-.176l-2.086,1.463a12.947,12.947,0,0,0-3.125-1.3l-.432-2.565a1.928,1.928,0,0,0-1.863-1.6h-2.166a1.929,1.929,0,0,0-1.9,1.6l-.439,2.5a12.977,12.977,0,0,0-3.126,1.3l-2.078-1.4a1.927,1.927,0,0,0-2.47.216l-1.5,1.5a1.925,1.925,0,0,0-.216,2.47l1.463,2.086a12.974,12.974,0,0,0-1.3,3.126l-2.5.439a1.927,1.927,0,0,0-1.6,1.9v2.127a1.927,1.927,0,0,0,1.6,1.9l2.5.44a12.967,12.967,0,0,0,1.3,3.125L278.781,380a1.925,1.925,0,0,0,.216,2.47l1.5,1.5a1.924,1.924,0,0,0,2.47.216l2.086-1.463a12.976,12.976,0,0,0,3.126,1.3l.439,2.5a1.926,1.926,0,0,0,1.9,1.6h2.157a1.926,1.926,0,0,0,1.9-1.6l.439-2.5a12.956,12.956,0,0,0,3.126-1.3l2.038,1.431a1.924,1.924,0,0,0,2.47-.216l1.5-1.5a1.926,1.926,0,0,0,.215-2.47l-1.462-2.1a12.994,12.994,0,0,0,1.294-3.125l2.51-.44a1.925,1.925,0,0,0,1.6-1.9v-2.127A1.926,1.926,0,0,0,306.717,368.382Zm-15.138,9.623a6.666,6.666,0,1,1,6.666-6.666v.038A6.666,6.666,0,0,1,291.578,378.005Z" transform="translate(-253.386 -337.236)" fill="#fff"/>
      </g>
      <g id="Group_14269" data-name="Group 14269" transform="translate(1186.146 371.781)">
        <g id="Group_14218" data-name="Group 14218" transform="translate(318.714 509.934)" opacity="0.25">
          <g id="Group_14270" data-name="Group 14270" transform="translate(0 0)">
            <circle id="Ellipse_139" data-name="Ellipse 139" cx="21.238" cy="21.238" r="21.238" transform="translate(0 41.316) rotate(-76.579)" fill="#f16e2d"/>
            <path id="Path_70022" data-name="Path 70022" d="M45.323,168.475l6.234,4.618L62.239,162.01" transform="translate(-27.549 -141.933)" fill="none" stroke="#fff" stroke-linecap="round" stroke-linejoin="round" stroke-width="2.136"/>
          </g>
        </g>
        <g id="Group_14267" data-name="Group 14267" transform="translate(0)">
          <g id="Group_14177" data-name="Group 14177" transform="translate(0 53.167)">
            <g id="Group_14176" data-name="Group 14176" transform="translate(0 0)">
              <path id="Path_69935" data-name="Path 69935" d="M4035.761,2711.252v9.1a6.2,6.2,0,0,1-6.01,6.272l-12.895.161a90.3,90.3,0,0,1-6.421,23.286l11.55,6.534a6.226,6.226,0,0,1,2.221,8.454l-4.461,8.086a6.179,6.179,0,0,1-8.352,2.592l-11.944-6.61a94.2,94.2,0,0,1-16.971,17.432l7.161,12.2a6.577,6.577,0,0,1-2.3,8.779l-8.026,5.094a6.164,6.164,0,0,1-8.69-1.874l-7.376-12.41a94.964,94.964,0,0,1-23.677,7.321v15.061a7.042,7.042,0,0,1-6.6,6.889l-9.771.584a6.183,6.183,0,0,1-6.7-6.165v-15.226a94.331,94.331,0,0,1-24.761-5.133l-7.952,13.658a7.38,7.38,0,0,1-9.515,2.953l-8.937-4.457a6.354,6.354,0,0,1-2.584-9.063l8.017-13.6a92.739,92.739,0,0,1-19.188-17.152l-13.906,8.064a7.381,7.381,0,0,1-9.928-2.141l-5.374-8.532a6.73,6.73,0,0,1,2.682-9.439l13.748-7.8a89.458,89.458,0,0,1-7.6-25.073l-15.577.194a7.064,7.064,0,0,1-7.4-6.808v-10.135a7.186,7.186,0,0,1,7.4-6.914l15.174-.026a90.346,90.346,0,0,1,6.907-25.791l-12.649-7a6.673,6.673,0,0,1-2.682-9.4l5.374-8.607a7.436,7.436,0,0,1,9.928-2.281l12.225,6.916a94.38,94.38,0,0,1,19.611-18.589l-6.758-11.37a6.41,6.41,0,0,1,2.584-9.1l8.937-4.583a7.309,7.309,0,0,1,9.515,2.819l6.523,11.112a95.048,95.048,0,0,1,26.19-5.985v-12.292a6.287,6.287,0,0,1,6.7-6.26l9.771.445a6.92,6.92,0,0,1,6.6,6.8V2624.4a93.916,93.916,0,0,1,25.009,7.627l6.044-10.253a6.208,6.208,0,0,1,8.69-2l8.026,4.98a6.521,6.521,0,0,1,2.3,8.746l-6.031,10.359a92.312,92.312,0,0,1,17.3,18.306l10.484-5.95a6.121,6.121,0,0,1,8.352,2.473l4.461,8.022a6.28,6.28,0,0,1-2.221,8.486l-10.617,6.157a89.451,89.451,0,0,1,5.826,23.736l12.556-.021A6.09,6.09,0,0,1,4035.761,2711.252ZM3992.2,2714.7c0-34.749-28.213-63.6-64.105-64.478-37.154-.9-68.246,28.329-68.246,65.323s31.092,65.83,68.246,64.451C3963.989,2778.663,3992.2,2749.447,3992.2,2714.7Z" transform="translate(-3808.211 -2604.989)" fill="#ecac8d"/>
              <path id="Path_69936" data-name="Path 69936" d="M4646.966,2659.743l-8.943-.309-3.083,8.018Z" transform="translate(-4568.654 -2649.606)" fill="#ecac8d"/>
              <path id="Path_69937" data-name="Path 69937" d="M4086.567,2681.643l10.313.1v7.607Z" transform="translate(-3919.578 -2667.805)" fill="#bfc8d6"/>
              <path id="Path_69938" data-name="Path 69938" d="M3869.041,2884.911l10.28.415-2.57,5.756Z" transform="translate(-3662.751 -2834.38)" fill="#bfc8d6"/>
              <path id="Path_69939" data-name="Path 69939" d="M3779.07,3159.973l10.382.822-3.392,5.037Z" transform="translate(-3556.641 -3059.788)" fill="#bfc8d6"/>
              <path id="Path_69940" data-name="Path 69940" d="M3869.61,3523.8l10.073,1.439,1.234-8.224Z" transform="translate(-3664.451 -3352.375)" fill="#bfc8d6"/>
              <path id="Path_69941" data-name="Path 69941" d="M4091.691,3737.3l9.046,1.645.721-6.682Z" transform="translate(-3925.081 -3528.767)" fill="#bfc8d6"/>
              <path id="Path_69942" data-name="Path 69942" d="M4404.464,3795.331l-8.121-1.438,6.99-10.383Z" transform="translate(-4283.083 -3570.766)" fill="#bfc8d6"/>
              <path id="Path_69943" data-name="Path 69943" d="M4649.521,3751.6l-9.458-1.953,7.3-8.841Z" transform="translate(-4572.135 -3535.768)" fill="#ecac8d" opacity="0.21"/>
              <path id="Path_69944" data-name="Path 69944" d="M4879.8,2862.155l9.87.308-3.907,7.2Z" transform="translate(-4855.557 -2815.732)" fill="#ecac8d"/>
              <path id="Path_69945" data-name="Path 69945" d="M4993.115,3263.411l9.046,1.336-.72-7.4Z" transform="translate(-4988.507 -3139.584)" fill="#e57e4b" opacity="0.21"/>
              <path id="Path_69946" data-name="Path 69946" d="M4882.645,3570.972l8.841,1.439.72-5.859Z" transform="translate(-4858.609 -3392.973)" fill="#ecac8d" opacity="0.21"/>
            </g>
            <path id="Path_69947" data-name="Path 69947" d="M3981.173,2712.118v9.177a6.247,6.247,0,0,1-6.06,6.323l-13,.161a91.043,91.043,0,0,1-6.475,23.476l11.646,6.588a6.276,6.276,0,0,1,2.239,8.523l-4.5,8.152a6.231,6.231,0,0,1-8.421,2.613l-12.043-6.663a94.912,94.912,0,0,1-17.112,17.574l7.221,12.3a6.629,6.629,0,0,1-2.317,8.851l-8.093,5.135a6.214,6.214,0,0,1-8.761-1.889l-7.438-12.51a95.756,95.756,0,0,1-23.873,7.381v15.183a7.1,7.1,0,0,1-6.656,6.945l-9.853.589a6.235,6.235,0,0,1-6.761-6.215v-15.35a95.111,95.111,0,0,1-24.966-5.175l-8.017,13.77a7.443,7.443,0,0,1-9.595,2.977l-9.01-4.493a6.406,6.406,0,0,1-2.606-9.137l8.084-13.711a93.444,93.444,0,0,1-19.348-17.291l-14.022,8.13a7.441,7.441,0,0,1-10.01-2.158l-5.419-8.6a6.786,6.786,0,0,1,2.7-9.517l13.863-7.866a90.177,90.177,0,0,1-7.667-25.278l-15.706.2a7.122,7.122,0,0,1-7.467-6.864v-10.218a7.244,7.244,0,0,1,7.467-6.97l15.3-.027a91.046,91.046,0,0,1,6.965-26l-12.755-7.057a6.727,6.727,0,0,1-2.7-9.478l5.419-8.678a7.5,7.5,0,0,1,10.01-2.3l12.326,6.973a95.165,95.165,0,0,1,19.774-18.741l-6.815-11.461a6.462,6.462,0,0,1,2.606-9.174l9.01-4.621a7.372,7.372,0,0,1,9.595,2.841l6.577,11.2a95.86,95.86,0,0,1,26.406-6.034v-12.392a6.339,6.339,0,0,1,6.761-6.311l9.853.449a6.976,6.976,0,0,1,6.656,6.851v12.258a94.689,94.689,0,0,1,25.217,7.688l6.094-10.336a6.26,6.26,0,0,1,8.761-2.013l8.093,5.021a6.573,6.573,0,0,1,2.317,8.817l-6.08,10.443a93.054,93.054,0,0,1,17.442,18.455l10.572-6a6.172,6.172,0,0,1,8.421,2.493l4.5,8.088a6.33,6.33,0,0,1-2.239,8.554l-10.7,6.207a90.219,90.219,0,0,1,5.874,23.929l12.661-.022A6.141,6.141,0,0,1,3981.173,2712.118Zm-43.921,3.473c0-35.031-28.447-64.123-64.636-65-37.462-.911-68.812,28.56-68.812,65.856s31.35,66.366,68.812,64.976C3908.8,2780.077,3937.252,2750.623,3937.252,2715.591Z" transform="translate(-3743.428 -2604.989)" fill="#fce8de"/>
          </g>
          <g id="Group_14215" data-name="Group 14215" transform="translate(97.943 31.65)">
            <rect id="Rectangle_1960" data-name="Rectangle 1960" width="235.031" height="460.765" rx="28.467" fill="#f7f4ee"/>
            <g id="Rectangle_1961" data-name="Rectangle 1961" fill="none" stroke="#060000" stroke-miterlimit="10" stroke-width="9.748">
              <rect width="235.031" height="460.765" rx="28.467" stroke="none"/>
              <rect x="4.874" y="4.874" width="225.283" height="451.018" rx="23.594" fill="none"/>
            </g>
            <g id="Rectangle_1962" data-name="Rectangle 1962" transform="translate(65.053 1.164)" fill="none" stroke="#060000" stroke-miterlimit="10" stroke-width="9.748">
              <path d="M0,0H104.924a0,0,0,0,1,0,0V13.718A8.28,8.28,0,0,1,96.644,22H8.28A8.28,8.28,0,0,1,0,13.718V0A0,0,0,0,1,0,0Z" stroke="none"/>
              <path d="M9.748,4.874H95.177a4.874,4.874,0,0,1,4.874,4.874v3.971a3.406,3.406,0,0,1-3.406,3.406H8.28a3.406,3.406,0,0,1-3.406-3.406V9.748A4.874,4.874,0,0,1,9.748,4.874Z" fill="none"/>
            </g>
            <line id="Line_38" data-name="Line 38" x2="40.234" transform="translate(97.984 10.308)" fill="none" stroke="#fff" stroke-linecap="round" stroke-linejoin="round" stroke-width="0.764"/>
          </g>
          <g id="Group_14261" data-name="Group 14261" transform="translate(278.766 145.532)">
            <g id="Group_14242" data-name="Group 14242" transform="translate(97.592 160.77)">
              <g id="Group_14237" data-name="Group 14237" transform="translate(0 0)">
                <g id="Group_14236" data-name="Group 14236" transform="translate(0 183.194)">
                  <g id="Group_14235" data-name="Group 14235" transform="translate(0 57.199)">
                    <path id="Path_70028" data-name="Path 70028" d="M340.289,450.784l-14.028,7.722a4.046,4.046,0,0,0-1.926,4.469c.364,1.4,1.562,2.477,4.683,2.538,6.936.138,37.622-4.976,37.622-4.976v4.412l14.341.075s.9-20.858-3.441-23.517Z" transform="translate(-324.214 -433.48)" fill="#2e313f"/>
                    <path id="Path_70029" data-name="Path 70029" d="M356.6,436.685,337.8,452.024s2.419,6.937,13.128,2.312,24.124-11.59,24.124-11.59L373.1,434.72Z" transform="translate(-321.73 -434.72)" fill="#ffb9b9"/>
                  </g>
                  <path id="Path_70030" data-name="Path 70030" d="M370.223,443.559l1.956-55.686-18.626-1.514v65.226Z" transform="translate(-318.852 -386.36)" fill="#ffb9b9"/>
                </g>
                <path id="Path_70031" data-name="Path 70031" d="M339.605,248.991,347.4,465.839h36.125l1.845-234.364Z" transform="translate(-321.401 -231.474)" fill="#2e313f"/>
              </g>
              <g id="Group_14241" data-name="Group 14241" transform="translate(22.254)">
                <path id="Path_70032" data-name="Path 70032" d="M343.03,245.191l18.177,105.652a21.438,21.438,0,0,0,28.084,16.709h0a21.438,21.438,0,0,0,14.436-21.808l-3.478-47.991c-1.754-16.289,2.286-37.354-15.508-66.279Z" transform="translate(-343.03 -231.474)" fill="#2e313f"/>
                <g id="Group_14240" data-name="Group 14240" transform="translate(20.884 97.875)">
                  <g id="Group_14239" data-name="Group 14239" transform="translate(50.922 72.865)">
                    <g id="Group_14238" data-name="Group 14238" transform="translate(15.459 48.241)">
                      <path id="Path_70033" data-name="Path 70033" d="M425.086,449.119l-7.793,13.987a4.047,4.047,0,0,0,.737,4.81c1.054,1,2.639,1.269,5.317-.334,5.952-3.561,29.252-24.176,29.252-24.176l2.34,3.739,12.2-7.544s-10.3-18.158-15.391-18.111Z" transform="translate(-416.81 -415.726)" fill="#2e313f"/>
                      <path id="Path_70034" data-name="Path 70034" d="M431.6,427.037l-7.793,22.973s5.731,4.6,12.355-5,14.3-22.623,14.3-22.623l-5.916-5.766Z" transform="translate(-415.532 -416.617)" fill="#ffb9b9"/>
                    </g>
                    <path id="Path_70035" data-name="Path 70035" d="M448.215,424.072,420.332,375.83l-16.592,8.6,34.6,55.291Z" transform="translate(-403.74 -375.83)" fill="#ffb9b9"/>
                  </g>
                  <path id="Path_70036" data-name="Path 70036" d="M360.687,343.1l67.147,100.138,31.291-20.061-64.9-108.953Z" transform="translate(-360.687 -314.225)" fill="#2e313f"/>
                </g>
              </g>
            </g>
            <g id="Group_14248" data-name="Group 14248" transform="translate(72.253)">
              <path id="Path_70037" data-name="Path 70037" d="M321.172,98.007s-14.921-1.944-16.867,12.178c-1.449,10.511,3.39,15.688-.4,24.143s3.321,16.014,3.321,16.014,17.675,8.21,36.878-8.579Z" transform="translate(-302.791 -95.115)" fill="#440c01"/>
              <path id="Path_70038" data-name="Path 70038" d="M323.234,140.051l8.094,21.031,16.939-4.512-15.644-30.232Z" transform="translate(-299.055 -89.92)" fill="#ffb9b9"/>
              <path id="Path_70039" data-name="Path 70039" d="M326.943,148.809l3.472-15.407-6.313,8.025Z" transform="translate(-298.896 -88.629)"/>
              <path id="Path_70040" data-name="Path 70040" d="M318.316,100.767s-10.055,2.122-10.061,14.883c0,0-.483,4.875.156,18.171.453,9.417,4.9,15.938,13.731,15.037,4.286-.438,8.773-3.053,12.792-6.439l5.629-5.736c13.015-15.881-.563-39.816-20.777-36.206Q319.062,100.606,318.316,100.767Z" transform="translate(-301.824 -94.714)" fill="#ffb9b9"/>
              <path id="Path_70041" data-name="Path 70041" d="M309.487,122.339l-3.565,6.256a1.079,1.079,0,0,0,.674,1.737l4.62.6Z" transform="translate(-302.256 -90.651)" fill="#ffb9b9"/>
              <path id="Path_70042" data-name="Path 70042" d="M331.355,123.518c.358-2.888,2.322-22.981-12.729-20.386a2.161,2.161,0,0,1-1.509-3.962c5.378-3.358,13.922-5.674,26.272-.918,5.014,1.931,11.922,8.541,11.925,15.035.007,13.94-4.638,21.008-12.808,28.184a.868.868,0,0,1-1.339-.253L335.9,131.046a.637.637,0,0,1-.045-.11c-.581-1.846-3.51-5.731-4.334-6.8A.841.841,0,0,1,331.355,123.518Z" transform="translate(-300.36 -95.547)" fill="#440c01"/>
              <path id="Path_70043" data-name="Path 70043" d="M321.5,97.8c-18.93,8.725,8.771,29.5,8.771,29.5h0l7.8-15.344S324.662,96.347,321.5,97.8Z" transform="translate(-300.581 -95.153)" fill="#440c01"/>
              <g id="Group_14246" data-name="Group 14246" transform="translate(6.248 17.741)">
                <path id="Path_70044" data-name="Path 70044" d="M309.87,112.838l10.009,3.392a13.034,13.034,0,0,0-5.29-4.944C309.819,108.969,309.87,112.838,309.87,112.838Z" transform="translate(-307.745 -110.547)"/>
                <g id="Group_14245" data-name="Group 14245" transform="translate(2.782 8.909)">
                  <g id="Group_14244" data-name="Group 14244" transform="translate(0 0.219)">
                    <path id="Path_70045" data-name="Path 70045" d="M311.873,118.264a4.483,4.483,0,0,1,3.483,4.09c.117,3.361-3.545,3.131-3.545,3.131S308.653,121.418,311.873,118.264Z" transform="translate(-310.426 -118.264)" fill="#fff"/>
                    <g id="Group_14243" data-name="Group 14243" clip-path="url(#clip-path)">
                      <path id="Path_70046" data-name="Path 70046" d="M312.643,117.53s2.615,4.859-.742,8.089h0l-1.883-.179-.089-5.356Z" transform="translate(-310.516 -118.398)"/>
                    </g>
                  </g>
                  <path id="Path_70048" data-name="Path 70048" d="M310.978,118.079a4.436,4.436,0,0,1,4.325,3.411" transform="translate(-310.325 -118.079)" fill="none" stroke="#000" stroke-linecap="round" stroke-linejoin="round" stroke-width="1.059"/>
                </g>
                <path id="Path_70049" data-name="Path 70049" d="M309.031,131.118a1.028,1.028,0,0,0-.192,2.021s-1.447,1.476.749,1.967,4.253-3.256,4.253-3.256C311.164,132.443,310.608,130.871,309.031,131.118Z" transform="translate(-308.073 -106.792)" fill="#440c01"/>
              </g>
              <path id="Path_70050" data-name="Path 70050" d="M330.5,132.05a84.612,84.612,0,0,1,.2,17.725s23.887,7.676,34.743-19.505c0,0-6.933-2.673-9.061-8.633s-.027-26.689-27.91-26.075C328.469,95.561,329.172,122.56,330.5,132.05Z" transform="translate(-298.098 -95.548)" fill="#440c01"/>
              <g id="Group_14247" data-name="Group 14247" transform="translate(28.754 26.339)">
                <path id="Path_70051" data-name="Path 70051" d="M339.926,123.457a6.437,6.437,0,1,1-7.184-5.59A6.438,6.438,0,0,1,339.926,123.457Z" transform="translate(-327.102 -117.817)" fill="#ffb9b9"/>
                <path id="Path_70052" data-name="Path 70052" d="M330.185,126.331s.253-4.9,4.291-4.987" transform="translate(-326.538 -117.172)" fill="none" stroke="#000" stroke-linecap="round" stroke-linejoin="round" stroke-width="0.511"/>
              </g>
            </g>
            <g id="Group_14260" data-name="Group 14260" transform="translate(0 63.829)">
              <g id="Group_14253" data-name="Group 14253" transform="translate(108.586 3.418)">
                <g id="Group_14249" data-name="Group 14249">
                  <path id="Path_70053" data-name="Path 70053" d="M368.449,165.552l39.593,32.064a12.975,12.975,0,0,1,.943,18.84h0a12.973,12.973,0,0,1-17.678.989L348.336,183.4Z" transform="translate(-330.8 -150.001)" fill="#f87d41"/>
                  <path id="Path_70054" data-name="Path 70054" d="M394.912,179.727s-1.693,12.767-23.94,27.42l-30.241-22.48a17.9,17.9,0,0,1-2.664-26.3h0a17.9,17.9,0,0,1,22.845-3.237Z" transform="translate(-333.51 -152.404)" fill="#f87d41"/>
                </g>
                <g id="Group_14252" data-name="Group 14252" transform="translate(56.868 45.786)">
                  <g id="Group_14250" data-name="Group 14250">
                    <path id="Path_70055" data-name="Path 70055" d="M385.395,213.233l39.274,50.457L434.3,252.4l-29.36-56.044a12.948,12.948,0,0,0-19.748-1.253h0A12.949,12.949,0,0,0,385.395,213.233Z" transform="translate(-381.59 -191.115)" fill="#ffb9b9"/>
                  </g>
                  <g id="Group_14251" data-name="Group 14251" transform="translate(40.11 58.098)">
                    <path id="Path_70056" data-name="Path 70056" d="M416.181,252.57l-.4,2.526a21.926,21.926,0,0,0,.766,10.141L418.387,271a2.324,2.324,0,0,0,3.28,1.357h0a2.975,2.975,0,0,0,1.6-2.923l-.6-6.394,12.774,18.079a1.8,1.8,0,0,0,2.679.356l.548-.478a1.8,1.8,0,0,0,.382-2.247l-8.156-12.469,11.35,13.027a1.8,1.8,0,0,0,2.69.187l.382-.375a1.8,1.8,0,0,0,.166-2.379l-9.384-12.081,9.138,7.605A1.8,1.8,0,0,0,448,271.8l.112-.2a1.8,1.8,0,0,0-.27-2.118l-8.93-8.577,5.609,3.352a1.8,1.8,0,0,0,2.885-.985h0a1.8,1.8,0,0,0-.494-1.7l-22.786-21.329-4.655,5.326A14,14,0,0,0,416.181,252.57Z" transform="translate(-415.502 -240.235)" fill="#ffb9b9"/>
                  </g>
                </g>
              </g>
              <path id="Path_70057" data-name="Path 70057" d="M342.193,151.438s-15.562-1.508-15.765,26.6c-.2,28.185,8.69,41.47,15.587,85.674,0,0,26.392-3.235,45.761-17.517C387.776,246.2,388.98,142.663,342.193,151.438Z" transform="translate(-226.219 -149.258)" fill="#f16e2d"/>
              <g id="Group_14259" data-name="Group 14259">
                <g id="Group_14255" data-name="Group 14255" transform="translate(54.327 2.571)">
                  <path id="Path_70058" data-name="Path 70058" d="M346.137,186.63l-36.805,35.23a12.974,12.974,0,0,1-18.808-1.444h0a12.974,12.974,0,0,1,1.251-17.661l39.192-38.33Z" transform="translate(-287.635 -149.359)" fill="#f87d41"/>
                  <g id="Group_14254" data-name="Group 14254" transform="translate(22.43)">
                    <path id="Path_70059" data-name="Path 70059" d="M332.635,211.3s-12.838-.444-26.036-26.617l25.88-27.387a17.9,17.9,0,0,1,26.427.447h0a17.9,17.9,0,0,1,.528,23.068Z" transform="translate(-306.599 -151.687)" fill="#f87d41"/>
                  </g>
                </g>
                <g id="Group_14258" data-name="Group 14258">
                  <g id="Group_14256" data-name="Group 14256" transform="translate(16.048 16.674)">
                    <path id="Path_70060" data-name="Path 70060" d="M314.6,203.3l-52.445-39.684-6.886,10.8,41.445,46.541a12.6,12.6,0,0,0,19.255-.064h0A12.6,12.6,0,0,0,314.6,203.3Z" transform="translate(-255.271 -163.611)" fill="#ffb9b9"/>
                  </g>
                  <g id="Group_14257" data-name="Group 14257">
                    <path id="Path_70061" data-name="Path 70061" d="M271.416,175.872c-1.976,6.646-8.389,6.38-21,2.846-6.676-1.871-9.1-6.6-7.121-13.247a12.554,12.554,0,0,1,15.611-8.454C265.553,158.992,273.392,169.227,271.416,175.872Z" transform="translate(-241.534 -148.238)" fill="#ffb9b9"/>
                    <path id="Path_70062" data-name="Path 70062" d="M261.388,159.236l-16.025-9.317a2.4,2.4,0,0,0-3.266.563h0a2.069,2.069,0,0,0,.336,2.79l12.439,10.515Z" transform="translate(-241.703 -149.513)" fill="#ffb9b9"/>
                  </g>
                </g>
              </g>
            </g>
          </g>
          <g id="Group_14220" data-name="Group 14220" transform="translate(36.673 297.19)">
            <rect id="Rectangle_1965" data-name="Rectangle 1965" width="106.248" height="77.746" rx="5.185" fill="#f16e2d"/>
            <g id="Group_14219" data-name="Group 14219" transform="translate(35.932 15.759)">
              <path id="Path_70023" data-name="Path 70023" d="M126.889,261.583a16.785,16.785,0,1,0-31.254,8.48h-.009l.047.063a16.816,16.816,0,0,0,2.265,3L110.1,289.241l12.153-16.1a16.854,16.854,0,0,0,2.287-3.03l.034-.046h-.006A16.686,16.686,0,0,0,126.889,261.583ZM110.1,268.891a7.387,7.387,0,1,1,7.388-7.386A7.386,7.386,0,0,1,110.1,268.891Z" transform="translate(-93.318 -244.798)" fill="#fff"/>
            </g>
          </g>
          <g id="Group_14234" data-name="Group 14234" transform="translate(361.346)">
            <g id="Group_14232" data-name="Group 14232">
              <path id="Path_70025" data-name="Path 70025" d="M378.768,97.955h47.675a21.341,21.341,0,0,0,21.341-21.341h0a21.341,21.341,0,0,0-21.341-21.341H378.768a21.341,21.341,0,0,0-21.341,21.341h0A21.341,21.341,0,0,0,378.768,97.955Z" transform="translate(-357.427 -55.274)" fill="#f16e2d"/>
              <path id="Path_70026" data-name="Path 70026" d="M392.48,87.557,377.01,102.746,374.2,86.432Z" transform="translate(-354.362 -49.579)" fill="#f16e2d"/>
            </g>
            <g id="Group_14233" data-name="Group 14233" transform="translate(17.566 12.958)">
              <path id="Path_70027" data-name="Path 70027" d="M392.732,67.839a5.626,5.626,0,0,0-7.961.084l-1.435,1.464-1.476-1.454a5.63,5.63,0,1,0-7.9,8.024l5.476,5.395c.012.011.019.025.031.037a5.631,5.631,0,0,0,7.962-.084l5.387-5.5A5.632,5.632,0,0,0,392.732,67.839Z" transform="translate(-372.279 -66.23)" fill="#fff"/>
              <line id="Line_48" data-name="Line 48" x2="21.934" transform="translate(31.226 3.502)" fill="none" stroke="#fff" stroke-linecap="round" stroke-linejoin="round" stroke-width="1.019"/>
              <line id="Line_49" data-name="Line 49" x2="11.569" transform="translate(31.226 9.587)" fill="none" stroke="#fff" stroke-linecap="round" stroke-linejoin="round" stroke-width="1.019"/>
            </g>
          </g>
          <g id="Group_14226" data-name="Group 14226" transform="translate(196.761 374.937)">
            <rect id="Rectangle_1975" data-name="Rectangle 1975" width="118.296" height="77.746" rx="5.185" fill="#fff"/>
            <rect id="Rectangle_1976" data-name="Rectangle 1976" width="90.574" height="17.675" rx="2.764" transform="translate(14.907 8.819)" fill="#f16e2d"/>
            <g id="Group_14225" data-name="Group 14225" transform="translate(16.09 38.07)">
              <line id="Line_44" data-name="Line 44" x2="41.277" fill="none" stroke="#000" stroke-linecap="round" stroke-linejoin="round" stroke-width="1.3"/>
              <line id="Line_45" data-name="Line 45" x2="88.208" transform="translate(0 10.052)" fill="none" stroke="#000" stroke-linecap="round" stroke-linejoin="round" stroke-width="1.3"/>
              <line id="Line_46" data-name="Line 46" x2="88.208" transform="translate(0 21.139)" fill="none" stroke="#000" stroke-linecap="round" stroke-linejoin="round" stroke-width="1.3"/>
            </g>
          </g>
          <g id="Group_14265" data-name="Group 14265" transform="translate(149.944 129.906) rotate(3)">
            <path id="Path_69965" data-name="Path 69965" d="M109.407,0H20.758a22.375,22.375,0,0,0-4.894.639c-.048.011-.094.079-.142.09.015-.1.029-.168.044-.271A19.856,19.856,0,0,0,.118,22.315l.027.273,9.308,90.288.028.267c1.27,12.316,12.534,21.723,25.041,21.023l87.973-4.924a19.656,19.656,0,0,0,10.27-3.524A20.146,20.146,0,0,0,141.075,107l-8.659-85.734C131.234,9.584,120.98,0,109.407,0Z" transform="translate(0 0)" fill="#ffd1ba"/>
            <g id="Group_14187" data-name="Group 14187" transform="translate(6.326 0)">
              <path id="Path_69966" data-name="Path 69966" d="M131.718,21.212l8.631,85.469a20.04,20.04,0,0,1-8.11,18.692,18.993,18.993,0,0,1-10.059,3.519L34.673,133.8c-12.439.7-23.991-8.665-25.256-20.949L.114,22.535A20.081,20.081,0,0,1,15.92.637,23.811,23.811,0,0,1,20.96,0h88.177C120.65,0,130.54,9.561,131.718,21.212Z" transform="translate(0)" fill="#f16e2d"/>
              <g id="Group_14186" data-name="Group 14186" transform="translate(15.837 15.472)">
                <g id="Group_14182" data-name="Group 14182" transform="translate(24.799 1.14)">
                  <path id="Path_69967" data-name="Path 69967" d="M17.236,100.474a10.439,10.439,0,0,1-1.263.052,9.568,9.568,0,0,1-1.223-.1,9.067,9.067,0,0,1-1.178-.258,8.926,8.926,0,0,1-1.13-.412A9.816,9.816,0,0,1,8.871,97a15.637,15.637,0,0,1-2.56-4.577,28.8,28.8,0,0,1-1.491-6.268,50.3,50.3,0,0,1-.368-7.819,77.527,77.527,0,0,1,.713-8.553c.405-2.966.975-6.033,1.7-9.162s1.6-6.317,2.626-9.529,2.19-6.44,3.493-9.654a124.634,124.634,0,0,1,7.7-15.811,85.105,85.105,0,0,1,8.584-12.32A42.59,42.59,0,0,1,38,5.281a15.841,15.841,0,0,1,8.158-2.955,9.678,9.678,0,0,1,1.193.047,9.114,9.114,0,0,1,1.153.193A8.882,8.882,0,0,1,49.61,2.9a8.976,8.976,0,0,1,1.059.48,10.277,10.277,0,0,1,3.316,2.882,16.5,16.5,0,0,1,2.37,4.529,29.52,29.52,0,0,1,1.385,6.05,50.082,50.082,0,0,1,.359,7.45,76.1,76.1,0,0,1-.63,8.137c-.364,2.825-.881,5.75-1.541,8.74s-1.467,6.051-2.41,9.14-2.026,6.217-3.238,9.338a127.32,127.32,0,0,1-7.387,15.816,90.713,90.713,0,0,1-8.445,12.709,47.288,47.288,0,0,1-8.795,8.659A17.859,17.859,0,0,1,17.236,100.474Zm29.3-95.3a10.121,10.121,0,0,0-3.371.724,18.566,18.566,0,0,0-3.7,1.985,32.5,32.5,0,0,0-3.947,3.193,51.417,51.417,0,0,0-4.1,4.346c-1.446,1.71-2.88,3.6-4.286,5.636S24.337,25.288,23,27.6s-2.625,4.752-3.854,7.285-2.4,5.165-3.487,7.861c-1.266,3.133-2.4,6.279-3.395,9.4S10.42,58.373,9.717,61.41,8.461,67.424,8.068,70.3a74.8,74.8,0,0,0-.69,8.278,48.579,48.579,0,0,0,.275,6.808,27.667,27.667,0,0,0,1.152,5.461,13.741,13.741,0,0,0,1.972,3.947,7.035,7.035,0,0,0,2.733,2.269,5.934,5.934,0,0,0,.773.281,6.223,6.223,0,0,0,.815.176,6.775,6.775,0,0,0,.855.07,7.594,7.594,0,0,0,.891-.036,11.34,11.34,0,0,0,3.527-1,21.156,21.156,0,0,0,3.836-2.305,36.687,36.687,0,0,0,4.045-3.526,56.956,56.956,0,0,0,4.157-4.667c1.44-1.795,2.86-3.756,4.245-5.855s2.733-4.33,4.032-6.672,2.545-4.788,3.727-7.317,2.3-5.133,3.333-7.792c1.189-3.053,2.25-6.106,3.176-9.126s1.716-6,2.364-8.918S54.44,34.6,54.8,31.856a73.4,73.4,0,0,0,.618-7.91,48.35,48.35,0,0,0-.272-6.514,28.262,28.262,0,0,0-1.079-5.283,14.456,14.456,0,0,0-1.838-3.9,7.383,7.383,0,0,0-2.552-2.361,5.976,5.976,0,0,0-.726-.325,6.094,6.094,0,0,0-.768-.228,6.452,6.452,0,0,0-.806-.129A7.058,7.058,0,0,0,46.532,5.176Z" fill="#fff"/>
                </g>
                <g id="Group_14183" data-name="Group 14183" transform="translate(1.41 26.903)">
                  <path id="Path_69968" data-name="Path 69968" d="M56.667,45.663c-3.321.259-6.626.392-9.874.4s-6.456-.108-9.561-.347-6.128-.6-9.008-1.088a77.661,77.661,0,0,1-8.209-1.82,51.1,51.1,0,0,1-7.35-2.65,29.865,29.865,0,0,1-5.611-3.275,16.432,16.432,0,0,1-3.728-3.808,10.194,10.194,0,0,1-1.708-4.247,9.257,9.257,0,0,1,.457-4.488A13.5,13.5,0,0,1,4.714,20,24.93,24.93,0,0,1,9.429,15.92a44.89,44.89,0,0,1,6.671-3.7,71.13,71.13,0,0,1,7.8-2.995c2.777-.893,5.724-1.68,8.8-2.353S38.965,5.637,42.251,5.2s6.646-.755,10.063-.945l.4-.022.4-.021.4-.019.4-.018c3.282-.143,6.512-.163,9.657-.064s6.19.315,9.124.645,5.737.771,8.4,1.32a69.049,69.049,0,0,1,7.478,1.964,44.777,44.777,0,0,1,6.462,2.644,26.536,26.536,0,0,1,4.875,3.146,15.224,15.224,0,0,1,3.214,3.572,9.983,9.983,0,0,1,1.474,3.924,9.182,9.182,0,0,1-.368,4.13A12.722,12.722,0,0,1,102,29.476a22.3,22.3,0,0,1-4.04,3.833,39.255,39.255,0,0,1-5.792,3.557,62.841,62.841,0,0,1-7.023,3.022c-2.535.923-5.25,1.756-8.113,2.49s-5.887,1.372-9.021,1.9-6.4.949-9.743,1.25l-.4.035-.4.034-.4.033Zm-2.356-38.6-.393.019-.395.02-.4.021-.4.022c-3.334.194-6.617.51-9.81.943s-6.312.983-9.3,1.641-5.851,1.429-8.544,2.3a68.584,68.584,0,0,0-7.553,2.917,43.407,43.407,0,0,0-5.829,3.2,24.02,24.02,0,0,0-4.182,3.429,11.82,11.82,0,0,0-2.4,3.532,6.569,6.569,0,0,0-.488,3.506A7.3,7.3,0,0,0,6.083,31.9a14.385,14.385,0,0,0,3.261,3.057,28.558,28.558,0,0,0,4.91,2.717,49.209,49.209,0,0,0,6.4,2.274,74.864,74.864,0,0,0,7.95,1.778c2.794.475,5.722.832,8.748,1.07s6.133.356,9.306.354,6.388-.125,9.63-.37l.392-.03.394-.032.394-.033.394-.034c3.266-.287,6.449-.688,9.515-1.2s6-1.118,8.8-1.826,5.435-1.509,7.9-2.4A60.636,60.636,0,0,0,90.9,34.317a37.958,37.958,0,0,0,5.092-3.06A21.387,21.387,0,0,0,99.6,28.032a11.039,11.039,0,0,0,2.049-3.284,6.5,6.5,0,0,0,.4-3.24,7.123,7.123,0,0,0-1.262-3.053,13.225,13.225,0,0,0-2.829-2.876,25.277,25.277,0,0,0-4.29-2.609,43.065,43.065,0,0,0-5.646-2.253,66.485,66.485,0,0,0-7.254-1.885c-2.582-.526-5.313-.947-8.161-1.258s-5.826-.514-8.883-.6S57.513,6.914,54.311,7.061Z" fill="#fff"/>
                </g>
                <g id="Group_14184" data-name="Group 14184" transform="translate(18.157 0.845)">
                  <path id="Path_69969" data-name="Path 69969" d="M65.136,95.906h0a18.1,18.1,0,0,1-8.757-1.885,51.8,51.8,0,0,1-10.646-6.667A101.912,101.912,0,0,1,34.085,76.477a145.857,145.857,0,0,1-11.735-14.5c-2.135-3-4.142-6.025-6-9.042s-3.575-6.033-5.121-9S8.3,38.02,7.109,35.159a83.874,83.874,0,0,1-2.993-8.336,52.646,52.646,0,0,1-1.736-7.772,27.561,27.561,0,0,1-.21-6.363,13.417,13.417,0,0,1,1.3-4.821A8,8,0,0,1,6.262,4.716a7.082,7.082,0,0,1,1.007-.539,7.856,7.856,0,0,1,1.1-.383,9.243,9.243,0,0,1,1.183-.235,11.3,11.3,0,0,1,1.263-.1,20.4,20.4,0,0,1,9.3,2.6,58.728,58.728,0,0,1,11,7.531A112.784,112.784,0,0,1,42.814,25.162,154.841,154.841,0,0,1,54.271,39.9c2.013,2.93,3.9,5.878,5.637,8.809s3.33,5.839,4.763,8.7,2.7,5.67,3.8,8.4a82.379,82.379,0,0,1,2.739,7.9,51.142,51.142,0,0,1,1.578,7.277,26.872,26.872,0,0,1,.2,5.958,13.581,13.581,0,0,1-1.16,4.585,8.4,8.4,0,0,1-2.507,3.153,4.989,4.989,0,0,1-.918.552,6.058,6.058,0,0,1-1.009.361,8.668,8.668,0,0,1-1.091.211C65.924,95.855,65.535,95.886,65.136,95.906ZM11.214,6.459a7.546,7.546,0,0,0-.891.072A6.372,6.372,0,0,0,9.5,6.7a5.548,5.548,0,0,0-.759.273,5.049,5.049,0,0,0-.688.373A5.721,5.721,0,0,0,5.959,9.936a12.116,12.116,0,0,0-.887,4.155A27.059,27.059,0,0,0,5.4,19.643a51.037,51.037,0,0,0,1.555,6.774,82.465,82.465,0,0,0,2.9,8.1c1.156,2.789,2.5,5.657,4,8.568s3.169,5.858,4.98,8.814S22.6,57.8,24.674,60.73c1.786,2.515,3.63,4.954,5.508,7.292s3.787,4.567,5.708,6.673,3.849,4.08,5.766,5.906,3.817,3.5,5.684,4.994A63.154,63.154,0,0,0,52.5,89.346a39.411,39.411,0,0,0,4.7,2.641,21.671,21.671,0,0,0,4.147,1.491,10.754,10.754,0,0,0,3.491.3h0a6.821,6.821,0,0,0,.817-.129,5.888,5.888,0,0,0,.756-.221,5.266,5.266,0,0,0,.693-.313,4.936,4.936,0,0,0,.627-.4A5.967,5.967,0,0,0,69.62,90.1a12.614,12.614,0,0,0,.788-4.027,27.118,27.118,0,0,0-.316-5.291,49.725,49.725,0,0,0-1.428-6.4A79.357,79.357,0,0,0,66,66.7c-1.069-2.653-2.311-5.388-3.71-8.173s-2.96-5.626-4.661-8.482-3.549-5.738-5.522-8.6c-1.72-2.5-3.507-4.935-5.337-7.287s-3.71-4.623-5.608-6.779-3.824-4.205-5.745-6.112-3.847-3.68-5.746-5.284c-1.84-1.554-3.629-2.932-5.35-4.124a45.292,45.292,0,0,0-4.939-3.008,25.245,25.245,0,0,0-4.408-1.823A12.4,12.4,0,0,0,11.214,6.459Z" fill="#fff"/>
                </g>
                <g id="Group_14185" data-name="Group 14185" transform="translate(47.286 42.104)">
                  <path id="Path_69970" data-name="Path 69970" d="M18.03,9.192a9.09,9.09,0,0,1-.21,3.529A8.309,8.309,0,0,1,16.36,15.69a7.859,7.859,0,0,1-2.476,2.1,7.977,7.977,0,0,1-3.263.934,8.692,8.692,0,0,1-3.478-.481A9.585,9.585,0,0,1,4.11,16.493a10.063,10.063,0,0,1-2.26-2.759A9.846,9.846,0,0,1,.689,10.246,9.091,9.091,0,0,1,.906,6.672,8.287,8.287,0,0,1,2.4,3.682,7.853,7.853,0,0,1,4.921,1.588,8,8,0,0,1,8.22.694a8.715,8.715,0,0,1,3.46.526A9.609,9.609,0,0,1,14.674,3a10.079,10.079,0,0,1,2.219,2.748A9.835,9.835,0,0,1,18.03,9.192Z" fill="#fff"/>
                </g>
              </g>
            </g>
          </g>
        </g>
      </g>
    </g>
  </g>
</svg>
